<svg xmlns="http://www.w3.org/2000/svg" viewBox="0 0 760 1040" font-family="'JetBrains Mono', ui-monospace, Menlo, Consolas, monospace">
<rect width="760" height="1040" fill="#0A0B0D"/>
<rect x="28" y="28" width="704" height="984" fill="#111317" stroke="#20232A" stroke-width="1"/>
<path d="M 52 64 L 52 52 L 64 52" fill="none" stroke="#6B675C" stroke-width="1"/>
<path d="M 708 64 L 708 52 L 696 52" fill="none" stroke="#6B675C" stroke-width="1"/>
<path d="M 52 976 L 52 988 L 64 988" fill="none" stroke="#6B675C" stroke-width="1"/>
<path d="M 708 976 L 708 988 L 696 988" fill="none" stroke="#6B675C" stroke-width="1"/>
<g><circle cx="292" cy="96" r="3" fill="#3A3933" opacity="0.45"/><circle cx="336" cy="96" r="3" fill="#3A3933" opacity="0.45"/><circle cx="204" cy="140" r="3" fill="#3A3933" opacity="0.45"/><circle cx="248" cy="140" r="3" fill="#3A3933" opacity="0.45"/><circle cx="292" cy="140" r="3" fill="#3A3933" opacity="0.45"/><circle cx="336" cy="140" r="3" fill="#3A3933" opacity="0.45"/><circle cx="380" cy="140" r="3" fill="#3A3933" opacity="0.45"/><circle cx="424" cy="140" r="3" fill="#3A3933" opacity="0.45"/><circle cx="160" cy="184" r="3" fill="#3A3933" opacity="0.45"/><circle cx="204" cy="184" r="3" fill="#3A3933" opacity="0.45"/><circle cx="248" cy="184" r="3" fill="#3A3933" opacity="0.45"/><circle cx="292" cy="184" r="3" fill="#3A3933" opacity="0.45"/><circle cx="336" cy="184" r="3" fill="#3A3933" opacity="0.45"/><circle cx="380" cy="184" r="3" fill="#3A3933" opacity="0.45"/><circle cx="424" cy="184" r="3" fill="#3A3933" opacity="0.45"/><circle cx="468" cy="184" r="3" fill="#3A3933" opacity="0.45"/><circle cx="512" cy="184" r="3" fill="#3A3933" opacity="0.45"/><circle cx="600" cy="184" r="3" fill="#3A3933" opacity="0.45"/><circle cx="160" cy="228" r="3" fill="#3A3933" opacity="0.45"/><circle cx="204" cy="228" r="3" fill="#3A3933" opacity="0.45"/><circle cx="248" cy="228" r="3" fill="#3A3933" opacity="0.45"/><circle cx="292" cy="228" r="3" fill="#3A3933" opacity="0.45"/><circle cx="336" cy="228" r="3" fill="#3A3933" opacity="0.45"/><circle cx="380" cy="228" r="3" fill="#3A3933" opacity="0.45"/><circle cx="424" cy="228" r="3" fill="#3A3933" opacity="0.45"/><circle cx="468" cy="228" r="3" fill="#3A3933" opacity="0.45"/><circle cx="556" cy="228" r="3" fill="#3A3933" opacity="0.45"/><circle cx="600" cy="228" r="3" fill="#3A3933" opacity="0.45"/><circle cx="116" cy="272" r="3" fill="#3A3933" opacity="0.45"/><circle cx="160" cy="272" r="3" fill="#3A3933" opacity="0.45"/><circle cx="204" cy="272" r="3" fill="#3A3933" opacity="0.45"/><circle cx="248" cy="272" r="3" fill="#3A3933" opacity="0.45"/><circle cx="292" cy="272" r="3" fill="#3A3933" opacity="0.45"/><circle cx="336" cy="272" r="3" fill="#3A3933" opacity="0.45"/><circle cx="380" cy="272" r="3" fill="#3A3933" opacity="0.45"/><circle cx="424" cy="272" r="3" fill="#3A3933" opacity="0.45"/><circle cx="556" cy="272" r="3" fill="#3A3933" opacity="0.45"/><circle cx="600" cy="272" r="3" fill="#3A3933" opacity="0.45"/><circle cx="644" cy="272" r="3" fill="#3A3933" opacity="0.45"/><circle cx="116" cy="316" r="3" fill="#3A3933" opacity="0.45"/><circle cx="160" cy="316" r="3" fill="#3A3933" opacity="0.45"/><circle cx="204" cy="316" r="3" fill="#3A3933" opacity="0.45"/><circle cx="248" cy="316" r="3" fill="#3A3933" opacity="0.45"/><circle cx="292" cy="316" r="3" fill="#3A3933" opacity="0.45"/><circle cx="336" cy="316" r="3" fill="#3A3933" opacity="0.45"/><circle cx="380" cy="316" r="3" fill="#3A3933" opacity="0.45"/><circle cx="556" cy="316" r="3" fill="#3A3933" opacity="0.45"/><circle cx="600" cy="316" r="3" fill="#3A3933" opacity="0.45"/><circle cx="644" cy="316" r="3" fill="#3A3933" opacity="0.45"/><circle cx="116" cy="360" r="3" fill="#3A3933" opacity="0.45"/><circle cx="160" cy="360" r="3" fill="#3A3933" opacity="0.45"/><circle cx="204" cy="360" r="3" fill="#3A3933" opacity="0.45"/><circle cx="248" cy="360" r="3" fill="#3A3933" opacity="0.45"/><circle cx="292" cy="360" r="3" fill="#3A3933" opacity="0.45"/><circle cx="336" cy="360" r="3" fill="#3A3933" opacity="0.45"/><circle cx="380" cy="360" r="3" fill="#3A3933" opacity="0.45"/><circle cx="424" cy="360" r="3" fill="#3A3933" opacity="0.45"/><circle cx="512" cy="360" r="3" fill="#3A3933" opacity="0.45"/><circle cx="556" cy="360" r="3" fill="#3A3933" opacity="0.45"/><circle cx="600" cy="360" r="3" fill="#3A3933" opacity="0.45"/><circle cx="644" cy="360" r="3" fill="#3A3933" opacity="0.45"/><circle cx="116" cy="404" r="3" fill="#3A3933" opacity="0.45"/><circle cx="160" cy="404" r="3" fill="#3A3933" opacity="0.45"/><circle cx="204" cy="404" r="3" fill="#3A3933" opacity="0.45"/><circle cx="248" cy="404" r="3" fill="#3A3933" opacity="0.45"/><circle cx="292" cy="404" r="3" fill="#3A3933" opacity="0.45"/><circle cx="336" cy="404" r="3" fill="#3A3933" opacity="0.45"/><circle cx="380" cy="404" r="3" fill="#3A3933" opacity="0.45"/><circle cx="468" cy="404" r="3" fill="#3A3933" opacity="0.45"/><circle cx="556" cy="404" r="3" fill="#3A3933" opacity="0.45"/><circle cx="600" cy="404" r="3" fill="#3A3933" opacity="0.45"/><circle cx="644" cy="404" r="3" fill="#3A3933" opacity="0.45"/><circle cx="116" cy="448" r="3" fill="#3A3933" opacity="0.45"/><circle cx="160" cy="448" r="3" fill="#3A3933" opacity="0.45"/><circle cx="204" cy="448" r="3" fill="#3A3933" opacity="0.45"/><circle cx="248" cy="448" r="3" fill="#3A3933" opacity="0.45"/><circle cx="292" cy="448" r="3" fill="#3A3933" opacity="0.45"/><circle cx="336" cy="448" r="3" fill="#3A3933" opacity="0.45"/><circle cx="468" cy="448" r="3" fill="#3A3933" opacity="0.45"/><circle cx="512" cy="448" r="3" fill="#3A3933" opacity="0.45"/><circle cx="556" cy="448" r="3" fill="#3A3933" opacity="0.45"/><circle cx="600" cy="448" r="3" fill="#3A3933" opacity="0.45"/><circle cx="644" cy="448" r="3" fill="#3A3933" opacity="0.45"/><circle cx="160" cy="492" r="3" fill="#3A3933" opacity="0.45"/><circle cx="204" cy="492" r="3" fill="#3A3933" opacity="0.45"/><circle cx="248" cy="492" r="3" fill="#3A3933" opacity="0.45"/><circle cx="292" cy="492" r="3" fill="#3A3933" opacity="0.45"/><circle cx="336" cy="492" r="3" fill="#3A3933" opacity="0.45"/><circle cx="380" cy="492" r="3" fill="#3A3933" opacity="0.45"/><circle cx="468" cy="492" r="3" fill="#3A3933" opacity="0.45"/><circle cx="512" cy="492" r="3" fill="#3A3933" opacity="0.45"/><circle cx="556" cy="492" r="3" fill="#3A3933" opacity="0.45"/><circle cx="600" cy="492" r="3" fill="#3A3933" opacity="0.45"/><circle cx="160" cy="536" r="3" fill="#3A3933" opacity="0.45"/><circle cx="204" cy="536" r="3" fill="#3A3933" opacity="0.45"/><circle cx="248" cy="536" r="3" fill="#3A3933" opacity="0.45"/><circle cx="292" cy="536" r="3" fill="#3A3933" opacity="0.45"/><circle cx="336" cy="536" r="3" fill="#3A3933" opacity="0.45"/><circle cx="424" cy="536" r="3" fill="#3A3933" opacity="0.45"/><circle cx="512" cy="536" r="3" fill="#3A3933" opacity="0.45"/><circle cx="556" cy="536" r="3" fill="#3A3933" opacity="0.45"/><circle cx="600" cy="536" r="3" fill="#3A3933" opacity="0.45"/><circle cx="204" cy="580" r="3" fill="#3A3933" opacity="0.45"/><circle cx="556" cy="580" r="3" fill="#3A3933" opacity="0.45"/><circle cx="292" cy="624" r="3" fill="#3A3933" opacity="0.45"/><circle cx="336" cy="624" r="3" fill="#3A3933" opacity="0.45"/><circle cx="380" cy="624" r="3" fill="#3A3933" opacity="0.45"/><circle cx="424" cy="624" r="3" fill="#3A3933" opacity="0.45"/><circle cx="468" cy="624" r="3" fill="#3A3933" opacity="0.45"/></g>
<g><circle cx="380.4" cy="96" r="10.2" fill="#8FA381"/><circle cx="424.4" cy="96.2" r="9.5" fill="#E7E2D5"/><circle cx="468.5" cy="95.4" r="10.1" fill="#E7E2D5"/><circle cx="468.6" cy="140.3" r="5.9" fill="#E7E2D5"/><circle cx="512.5" cy="140" r="10.6" fill="#8FA381"/><circle cx="555.6" cy="140.2" r="9.2" fill="#E7E2D5"/><circle cx="555.6" cy="183.9" r="10" fill="#E7E2D5"/><circle cx="512.6" cy="227.4" r="8.6" fill="#3A3933"/><circle cx="468.2" cy="271.9" r="7.6" fill="#E7E2D5" opacity="0.8"/><circle cx="512.5" cy="271.8" r="10" fill="#E7E2D5"/><circle cx="423.8" cy="315.8" r="7.6" fill="#E7E2D5" opacity="0.8"/><circle cx="468.6" cy="315.4" r="5.8" fill="#E7E2D5"/><circle cx="511.5" cy="316.2" r="9" fill="#E7E2D5"/><circle cx="468.1" cy="360.1" r="9.2" fill="#E7E2D5"/><circle cx="423.9" cy="404" r="9.6" fill="#E7E2D5"/><circle cx="511.6" cy="404" r="7.8" fill="#E7E2D5" opacity="0.8"/><circle cx="379.6" cy="448.3" r="7.5" fill="#E7E2D5" opacity="0.8"/><circle cx="423.9" cy="447.8" r="9.8" fill="#8FA381"/><circle cx="423.7" cy="492.4" r="9.2" fill="#E7E2D5"/><circle cx="380.6" cy="535.9" r="9.7" fill="#E7E2D5"/><circle cx="468" cy="536.3" r="8" fill="#E7E2D5" opacity="0.8"/><circle cx="248.1" cy="579.8" r="5.3" fill="#3A3933" opacity="0.9"/><circle cx="291.8" cy="580" r="5.6" fill="#3A3933" opacity="0.9"/><circle cx="335.9" cy="580.4" r="5.5" fill="#3A3933" opacity="0.9"/><circle cx="379.7" cy="579.9" r="5.8" fill="#3A3933" opacity="0.9"/><circle cx="424.3" cy="580.1" r="5.2" fill="#3A3933" opacity="0.9"/><circle cx="467.8" cy="580.1" r="5.4" fill="#3A3933" opacity="0.9"/><circle cx="511.7" cy="579.7" r="5.4" fill="#3A3933" opacity="0.9"/></g>
<text x="88" y="752" font-family="'Space Grotesk', system-ui, sans-serif" font-size="30" font-weight="500" letter-spacing="4" fill="#E7E2D5">FIG-2026-W23</text>
<rect x="88" y="764" width="236" height="2" fill="#8FA381"/>
<text x="88" y="804" font-size="13" letter-spacing="2.5" fill="#6B675C">01–07 JUN 2026 · DELHI</text>
<rect x="88" y="824" width="18" height="3" fill="#8FA381"/>
<text x="116" y="832" font-size="13" letter-spacing="2.5" fill="#6B675C">TEMPERATE · 21 CELLS</text>
<text x="88" y="862" font-size="13" letter-spacing="2.5" fill="#6B675C">LEAVES 5 · THORNS 2 · DRUPES 3 · SCARS 1</text>
<text x="672" y="986" text-anchor="end" font-size="10" letter-spacing="3" fill="#6B675C" opacity="0.7">HERBARIUM · PLATE 23</text>
</svg>